<svg xmlns="http://www.w3.org/2000/svg" width="543" height="441" viewBox="0 0 543 441"><g><g><path fill="#005099" d="M455 16a8 8 0 1 0 0-16 8 8 0 0 0 0 16z"/></g><g><path fill="#f7b9e1" d="M85 142a8 8 0 1 0 0-16 8 8 0 0 0 0 16z"/></g><g><path fill="#005099" d="M8 357a8 8 0 1 0 0-16 8 8 0 0 0 0 16z"/></g><g><path fill="#005099" d="M93 441a8 8 0 1 0 0-16 8 8 0 0 0 0 16z"/></g><g><path fill="#f7b9e1" d="M427 245a8 8 0 1 0 0-16 8 8 0 0 0 0 16z"/></g><g><path fill="#f7b9e1" d="M513 115a8 8 0 1 0 0-16 8 8 0 0 0 0 16z"/></g><g><path fill="#005099" d="M535 379a8 8 0 1 0 0-16 8 8 0 0 0 0 16z"/></g><g><path fill="#f7b9e1" d="M145 349a8 8 0 1 0 0-16 8 8 0 0 0 0 16z"/></g></g></svg>