<svg xmlns="http://www.w3.org/2000/svg" width="699" height="162" viewBox="0 0 699 162"><g><g><path fill="#f7b9e1" d="M317.82 16a8 8 0 1 0 0-16 8 8 0 0 0 0 16z"/></g><g><path fill="#f7b9e1" d="M627.82 51a8 8 0 1 0 0-16 8 8 0 0 0 0 16z"/></g><g><path fill="#f7b9e1" d="M690.82 94a8 8 0 1 0 0-16 8 8 0 0 0 0 16z"/></g><g><path fill="#f7b9e1" d="M136.82 44a8 8 0 1 0 0-16 8 8 0 0 0 0 16z"/></g><g><path fill="#f7b9e1" d="M8.82 101a8 8 0 1 0 0-16 8 8 0 0 0 0 16z"/></g><g><path fill="#f7b9e1" d="M404.82 162a8 8 0 1 0 0-16 8 8 0 0 0 0 16z"/></g><g><path fill="#f7b9e1" d="M593.82 145a8 8 0 1 0 0-16 8 8 0 0 0 0 16z"/></g></g></svg>